<?xml version="1.0" encoding="UTF-8" standalone="no"?>
<!-- Created with Inkscape (http://www.inkscape.org/) -->

<svg
   id="svg2985"
   version="1.1"
   inkscape:version="1.1.2 (0a00cf5339, 2022-02-04)"
   width="200"
   height="200"
   xml:space="preserve"
   sodipodi:docname="Smart_logo_final.svg"
   xmlns:inkscape="http://www.inkscape.org/namespaces/inkscape"
   xmlns:sodipodi="http://sodipodi.sourceforge.net/DTD/sodipodi-0.dtd"
   xmlns="http://www.w3.org/2000/svg"
   xmlns:svg="http://www.w3.org/2000/svg"
   xmlns:rdf="http://www.w3.org/1999/02/22-rdf-syntax-ns#"
   xmlns:cc="http://creativecommons.org/ns#"
   xmlns:dc="http://purl.org/dc/elements/1.1/"><metadata
     id="metadata2991"><rdf:RDF><cc:Work
         rdf:about=""><dc:format>image/svg+xml</dc:format><dc:type
           rdf:resource="http://purl.org/dc/dcmitype/StillImage" /><dc:title /></cc:Work></rdf:RDF></metadata><defs
     id="defs2989"><clipPath
       clipPathUnits="userSpaceOnUse"
       id="clipPath3001"><path
         d="M 0,957.449 V 0 h 1552.24 v 957.449 z"
         id="path3003" /></clipPath></defs><sodipodi:namedview
     pagecolor="#ffffff"
     bordercolor="#666666"
     borderopacity="1"
     objecttolerance="10"
     gridtolerance="10"
     guidetolerance="10"
     inkscape:pageopacity="0"
     inkscape:pageshadow="2"
     inkscape:window-width="1920"
     inkscape:window-height="1080"
     id="namedview2987"
     showgrid="false"
     inkscape:zoom="0.31111111"
     inkscape:cx="-425.89286"
     inkscape:cy="126.96429"
     inkscape:window-x="0"
     inkscape:window-y="0"
     inkscape:window-maximized="1"
     inkscape:current-layer="g2993"
     inkscape:pagecheckerboard="0" /><g
     id="g2993"
     inkscape:groupmode="layer"
     inkscape:label="ink_ext_XXXXXX"
     transform="matrix(1.25,0,0,-1.25,-175.47573,624.68235)"><path
       d="m 240.06239,371.92617 h -7.4176 l -8.6992,15.16407 -8.9497,-15.16407 h -7.2246 l 16.1606,27.88677 16.1305,-27.88677"
       style="fill:#6bb1d3;fill-opacity:1;fill-rule:nonzero;stroke:none;stroke-width:0.1"
       id="path3005" /><path
       d="m 161.68069,390.21724 h -14.52421 v -5.5137 h 13.28401 c 1.9394,0 3.2636,-0.3477 3.9707,-1.041 0.707,-0.6953 1.0613,-2.02152 1.0613,-3.98246 v -2.54687 c 0,-1.96094 -0.3453,-3.28711 -1.0379,-3.98243 -0.6914,-0.69336 -2.0234,-1.04101 -3.9941,-1.04101 H 147.8475 c -1.97149,0 -3.31133,0.34765 -4.01836,1.04101 -0.70703,0.69532 -1.06055,2.02149 -1.06055,3.98243 l 0.0391,1.33984 3.53711,0.008 v -3.16015 h 15.62183 v 5.97656 h -13.33198 c -1.95586,0 -3.28282,0.34765 -3.98321,1.04297 -0.69922,0.6934 -1.04883,2.0195 -1.04883,3.9805 v 2.0097 c 0,1.9434 0.34961,3.2696 1.04883,3.9805 0.70039,0.7109 2.02735,1.0664 3.98321,1.0664 h 11.51948 c 1.9231,0 3.2512,-0.3437 3.9836,-1.0293 0.7305,-0.6855 1.0957,-1.8945 1.0957,-3.6269 l 0.0411,-1.3008 -3.5938,0.004 v 2.793"
       style="fill:#656263;fill-opacity:1;fill-rule:nonzero;stroke:none;stroke-width:0.1"
       id="path3007" /><path
       d="m 177.65919,389.43204 c 0,-0.3106 0.0156,-0.7344 0.0489,-1.2734 0.0312,-0.8829 0.0468,-1.4454 0.0468,-1.6914 v -14.35747 h -3.2187 v 21.26757 h 3.2187 l 10.3028,-13.79492 9.4687,13.79492 h 3.625 v -21.26757 h -3.625 v 14.35747 c 0,0.5234 0.0195,1.0292 0.0598,1.5195 0.0398,0.4902 0.0984,0.9629 0.1785,1.4219 -0.2227,-0.67 -0.4531,-1.2618 -0.6914,-1.7774 -0.2383,-0.5137 -0.4609,-0.9023 -0.668,-1.164 l -7.9656,-11.00005 h -1.0258 l -8.2515,10.90235 c -0.2864,0.375 -0.5571,0.8164 -0.811,1.3242 -0.2547,0.5059 -0.4851,1.0859 -0.6922,1.7383"
       style="fill:#656263;fill-opacity:1;fill-rule:nonzero;stroke:none;stroke-width:0.1"
       id="path3009" /><path
       d="m 262.21859,390.02964 h -11.017 v -6.8613 h 11.017 c 0.875,0 1.463,0.1465 1.766,0.4414 0.301,0.2949 0.453,0.8653 0.453,1.7149 v 2.5488 c 0,0.7832 -0.16,1.3379 -0.478,1.666 -0.317,0.3262 -0.898,0.4902 -1.741,0.4902 z m -14.929,-18.1562 v 21.2676 h 16.646 c 1.543,0 2.652,-0.3223 3.328,-0.9688 0.676,-0.6445 1.014,-1.6933 1.014,-3.1484 v -4.752 c 0,-1.4375 -0.338,-2.47457 -1.014,-3.11129 -0.676,-0.63867 -1.785,-0.95703 -3.328,-0.95703 h -2.742 l 9.135,-8.33008 h -5.223 l -8.252,8.33008 h -5.652 v -8.33008 h -3.912"
       style="fill:#656263;fill-opacity:1;fill-rule:nonzero;stroke:none;stroke-width:0.1"
       id="path3011" /><path
       d="m 288.16559,389.98084 v -18.1074 h -3.886 v 18.1074 h -9.779 v 3.1602 h 23.492 v -3.1602 h -9.827"
       style="fill:#656263;fill-opacity:1;fill-rule:nonzero;stroke:none;stroke-width:0.1"
       id="path3013" /><path
       d="m 208.99319,467.61834 h 7.418 l 8.7004,-15.164 8.9468,15.164 h 7.227 l -16.1606,-27.8863 -16.1316,27.8863"
       style="fill:#6a2071;fill-opacity:1;fill-rule:nonzero;stroke:none;stroke-width:0.1"
       id="path3015" /><path
       d="m 190.80379,438.11834 3.7109,6.4239 17.4805,-0.0489 -8.6582,15.3321 3.6132,6.2578 16.0711,-27.9395 -32.2175,-0.0254"
       style="fill:#e3372b;fill-opacity:1;fill-rule:nonzero;stroke:none;stroke-width:0.1"
       id="path3017" /><path
       d="m 259.57859,435.81754 -3.709,-6.4226 -17.4826,0.0488 8.6576,-15.332 -3.613,-6.2578 -16.07,27.9367 32.217,0.0269"
       style="fill:#7bc631;fill-opacity:1;fill-rule:nonzero;stroke:none;stroke-width:0.1"
       id="path3019" /><path
       d="m 243.41059,466.19644 3.711,-6.4238 -8.7854,-15.1148 17.6074,-0.1684 3.613,-6.2574 -32.2306,0.0523 16.0846,27.9121"
       style="fill:#e86e19;fill-opacity:1;fill-rule:nonzero;stroke:none;stroke-width:0.1"
       id="path3021" /><path
       d="m 206.94049,407.86174 -3.709,6.4258 8.7832,15.1152 -17.6074,0.168 -3.6114,6.2547 32.2293,-0.0508 -16.0847,-27.9129"
       style="fill:#efad1a;fill-opacity:1;fill-rule:nonzero;stroke:none;stroke-width:0.1"
       id="path3023" /><rect
       style="fill:none;stroke:none;stroke-width:15.1181;stroke-linecap:round;paint-order:stroke fill markers"
       id="rect183"
       width="160"
       height="160"
       x="140.38058"
       y="-499.74588"
       transform="scale(1,-1)" /></g></svg>
