<svg width="186" height="40" viewBox="0 0 186 40" fill="none" xmlns="http://www.w3.org/2000/svg">
<g clip-path="url(#clip0)">
<path d="M12.9297 0H18.2012L24.416 10.1238L30.7417 0H35.9022L24.416 18.652L12.9297 0Z" fill="#722772"/>
<path d="M0 19.6422L2.66348 15.4607H15.0931L8.93377 5.22682L11.4863 0.990234L22.9171 19.6422H0Z" fill="#E24A31"/>
<path d="M48.8858 21.293L46.2778 25.4745H33.8482L40.0075 35.8184L37.3995 40L25.9688 21.293H48.8858Z" fill="#89BF44"/>
<path d="M37.3995 0.935547L40.063 5.22716L33.7927 15.461H46.3333L48.8858 19.6426H25.9688L37.3995 0.935547Z" fill="#E77D26"/>
<path d="M11.4863 40L8.82279 35.7084L15.0931 25.4745H2.55251L0 21.293H22.9171L11.4863 40Z" fill="#F1B42A"/>
<path d="M74.5784 16.1377H64.2019V19.8791H73.6906C75.0779 19.8791 76.0212 20.0991 76.5206 20.5943C77.02 21.0895 77.2974 21.9698 77.2974 23.2903V24.996C77.2974 26.3165 77.0755 27.1968 76.5761 27.692C76.0767 28.1872 75.1333 28.4073 73.7461 28.4073H64.7014C63.3141 28.4073 62.3153 28.1872 61.8159 27.692C61.3165 27.1968 61.0391 26.3165 61.0391 24.996V24.1157H63.5916V26.2615H74.7449V22.245H65.2562C63.869 22.245 62.9257 22.0249 62.4263 21.5297C61.9269 21.0345 61.6494 20.1542 61.7049 18.8337V17.4582C61.7049 16.1377 61.9824 15.2573 62.4818 14.7621C62.9812 14.267 63.9245 14.0469 65.3117 14.0469H73.5796C74.9669 14.0469 75.9102 14.267 76.4096 14.7621C76.909 15.2573 77.1864 16.0276 77.1864 17.1831V18.0634H74.6339V16.1377H74.5784Z" fill="#676868"/>
<path d="M86.0086 16.6332C86.0086 16.8533 86.0086 17.1284 86.0641 17.5135C86.0641 18.1187 86.1196 18.5039 86.1196 18.6689V28.3526H83.7891V13.9922H86.1196L93.4442 23.2907L100.214 13.9922H102.822V28.3526H100.214V18.6689C100.214 18.3388 100.214 17.9537 100.269 17.6235C100.325 17.2934 100.325 16.9633 100.38 16.6882C100.214 17.0733 100.047 17.5135 99.881 17.8987C99.77 18.1738 99.6035 18.4489 99.3816 18.6689L93.7216 26.0967H93.0003L87.0629 18.724C86.841 18.4489 86.6745 18.1187 86.508 17.8436C86.3416 17.4585 86.1751 17.0733 86.0086 16.6332Z" fill="#676868"/>
<path d="M135.84 28.4624V14.102H147.77C148.602 14.047 149.49 14.2671 150.156 14.7623C150.711 15.3125 150.933 16.0827 150.877 16.9081V20.0993C150.933 20.8695 150.711 21.6398 150.156 22.19C149.49 22.6852 148.602 22.9053 147.77 22.8503H145.828L152.376 28.4624H148.658L142.776 22.8503H138.725V28.4624H135.84ZM146.494 16.2478H138.614V20.8695H146.494C146.938 20.9246 147.382 20.8145 147.77 20.5944C148.047 20.2643 148.158 19.8241 148.103 19.439V17.7334C148.158 17.3482 147.992 16.9631 147.77 16.633C147.382 16.3578 146.938 16.1928 146.494 16.2478Z" fill="#676868"/>
<path d="M165.083 16.248V28.4626H162.308V16.248H155.316V14.1572H172.13V16.248H165.083Z" fill="#676868"/>
<path d="M130.678 28.4626H125.351L119.136 18.2287L112.7 28.4626H107.539L119.136 9.64551L130.678 28.4626Z" fill="#64AED0"/>
<path d="M175.678 13.4421C175.956 12.8368 176.344 12.2866 176.844 11.8465C177.343 11.4063 177.898 11.0212 178.564 10.8011C179.895 10.3059 181.394 10.3059 182.67 10.8011C183.28 11.0212 183.891 11.4063 184.39 11.8465C184.89 12.2866 185.278 12.8368 185.555 13.4421C185.833 14.0473 185.999 14.7626 185.999 15.4228C185.999 16.1381 185.833 16.7983 185.555 17.4036C185.278 18.0088 184.89 18.559 184.39 18.9992C183.891 19.4393 183.336 19.8245 182.67 20.0445C181.338 20.5397 179.84 20.5397 178.564 20.0445C177.953 19.8245 177.343 19.4393 176.844 18.9992C176.344 18.559 175.956 18.0088 175.678 17.4036C175.401 16.7983 175.234 16.0831 175.234 15.4228C175.234 14.7626 175.401 14.0473 175.678 13.4421ZM176.566 17.1285C176.788 17.6236 177.121 18.1188 177.509 18.504C177.898 18.8891 178.397 19.2192 178.897 19.3843C179.452 19.6044 180.062 19.7144 180.617 19.7144C181.227 19.7144 181.782 19.6044 182.337 19.3843C182.836 19.1642 183.336 18.8891 183.724 18.504C184.113 18.1188 184.446 17.6236 184.668 17.1285C184.89 16.5782 185 16.028 185 15.4228C185 14.8726 184.89 14.2674 184.668 13.7722C184.446 13.277 184.113 12.7818 183.724 12.4517C183.336 12.0666 182.836 11.7364 182.337 11.5714C181.782 11.3513 181.227 11.2412 180.617 11.2412C180.006 11.2412 179.452 11.3513 178.897 11.5714C178.397 11.7914 177.898 12.0666 177.509 12.4517C177.121 12.8368 176.788 13.277 176.566 13.7722C176.344 14.2674 176.233 14.8726 176.233 15.4228C176.178 16.028 176.289 16.5782 176.566 17.1285ZM180.95 12.5067C181.56 12.4517 182.115 12.6168 182.614 12.9469C183.003 13.277 183.225 13.7172 183.169 14.2124C183.225 14.6525 183.058 15.0927 182.67 15.3678C182.337 15.6429 181.893 15.808 181.449 15.808L183.225 18.3939H182.171L180.45 15.863H179.396V18.3939H178.397V12.5067H180.95ZM180.506 15.0927C180.728 15.0927 180.95 15.0927 181.116 15.0927C181.283 15.0927 181.449 15.0377 181.616 14.9826C181.782 14.9276 181.893 14.8176 181.949 14.6525C182.06 14.4875 182.115 14.3224 182.06 14.1023C182.06 13.9373 182.004 13.7722 181.949 13.6071C181.893 13.4971 181.782 13.387 181.616 13.332C181.505 13.277 181.338 13.222 181.172 13.222C181.005 13.222 180.839 13.167 180.672 13.167H179.396V15.0377H180.506V15.0927Z" fill="#676868"/>
</g>
<defs>
<clipPath id="clip0">
<rect width="186" height="40" fill="white"/>
</clipPath>
</defs>
</svg>
